<svg xmlns="http://www.w3.org/2000/svg" xmlns:xlink="http://www.w3.org/1999/xlink" xmlns:lucid="lucid" width="370" height="410"><g transform="translate(-422 -174)" lucid:page-tab-id="Dl5iviTfp~OW"><path d="M660 230c0 16.57-31.34 30-70 30s-70-13.43-70-30 31.34-30 70-30 70 13.43 70 30z" stroke="#8ca88e" stroke-width="3" fill="#cbd2c6"/><use xlink:href="#a" transform="matrix(1,0,0,1,520,200) translate(41.940185185185186 34.94444444444444)"/><path d="M660 330c0 16.57-31.34 30-70 30s-70-13.43-70-30 31.34-30 70-30 70 13.43 70 30z" stroke="#8ca88e" stroke-width="3" fill="#cbd2c6"/><use xlink:href="#b" transform="matrix(1,0,0,1,520,300) translate(42.09141975308641 34.94444444444444)"/><path d="M760 430c0 16.57-31.34 30-70 30s-70-13.43-70-30 31.34-30 70-30 70 13.43 70 30z" stroke="#8ca88e" stroke-width="3" fill="#cbd2c6"/><use xlink:href="#c" transform="matrix(1,0,0,1,620,400) translate(46.71487654320988 34.94444444444444)"/><path d="M580 430c0 16.57-31.34 30-70 30s-70-13.43-70-30 31.34-30 70-30 70 13.43 70 30z" stroke="#8ca88e" stroke-width="3" fill="#cbd2c6"/><use xlink:href="#d" transform="matrix(1,0,0,1,440,400) translate(44.10067901234568 34.94444444444444)"/><path d="M580 530c0 16.57-31.34 30-70 30s-70-13.43-70-30 31.34-30 70-30 70 13.43 70 30z" stroke="#8ca88e" stroke-width="3" fill="#cbd2c6"/><use xlink:href="#e" transform="matrix(1,0,0,1,440,500) translate(55.76734567901235 34.94444444444444)"/><path d="M762.9 530c0 16.57-31.34 30-70 30s-70-13.43-70-30 31.34-30 70-30 70 13.43 70 30z" stroke="#8ca88e" stroke-width="3" fill="#cbd2c6"/><use xlink:href="#e" transform="matrix(1,0,0,1,622.9001763996663,500) translate(55.76734567901235 34.94444444444444)"/><path d="M590 262.5v35" stroke="#5a786f" stroke-width="2" fill="none"/><path d="M590 261.5l1-.03v1.06h-2v-1.06zM591 298.53l-1-.03-1 .03v-1.06h2z" stroke="#5a786f" stroke-width=".05" fill="#5a786f"/><path d="M590 362.5V374a6 6 0 0 1-6 6h-68a6 6 0 0 0-6 6v11.5" stroke="#5a786f" stroke-width="2" fill="none"/><path d="M590 361.5l1-.03v1.06h-2v-1.06zM511 398.53l-1-.03-1 .03v-1.06h2z" stroke="#5a786f" stroke-width=".05" fill="#5a786f"/><path d="M590 362.5V374a6 6 0 0 0 6 6h88a6 6 0 0 1 6 6v11.5" stroke="#5a786f" stroke-width="2" fill="none"/><path d="M590 361.5l1-.03v1.06h-2v-1.06zM691 398.53l-1-.03-1 .03v-1.06h2z" stroke="#5a786f" stroke-width=".05" fill="#5a786f"/><path d="M510 462.5v35" stroke="#5a786f" stroke-width="2" fill="none"/><path d="M510 461.5l1-.03v1.06h-2v-1.06zM511 498.53l-1-.03-1 .03v-1.06h2z" stroke="#5a786f" stroke-width=".05" fill="#5a786f"/><path d="M690 462.5v35.1" stroke="#5a786f" stroke-width="2" fill="none"/><path d="M690 461.5l1-.03v1.06h-2v-1.06zM691 498.57l-2 .07v-1.06h2z" stroke="#5a786f" stroke-width=".05" fill="#5a786f"/><defs><path fill="#323e45" d="M127-220V0H93v-220H8v-28h204v28h-85" id="f"/><path fill="#323e45" d="M100-194c63 0 86 42 84 106H49c0 40 14 67 53 68 26 1 43-12 49-29l28 8c-11 28-37 45-77 45C44 4 14-33 15-96c1-61 26-98 85-98zm52 81c6-60-76-77-97-28-3 7-6 17-6 28h103" id="g"/><path fill="#323e45" d="M135-143c-3-34-86-38-87 0 15 53 115 12 119 90S17 21 10-45l28-5c4 36 97 45 98 0-10-56-113-15-118-90-4-57 82-63 122-42 12 7 21 19 24 35" id="h"/><path fill="#323e45" d="M59-47c-2 24 18 29 38 22v24C64 9 27 4 27-40v-127H5v-23h24l9-43h21v43h35v23H59v120" id="i"/><path fill="#323e45" d="M205 0l-28-72H64L36 0H1l101-248h38L239 0h-34zm-38-99l-47-123c-12 45-31 82-46 123h93" id="j"/><path fill="#323e45" d="M115-194c55 1 70 41 70 98S169 2 115 4C84 4 66-9 55-30l1 105H24l-1-265h31l2 30c10-21 28-34 59-34zm-8 174c40 0 45-34 45-75s-6-73-45-74c-42 0-51 32-51 76 0 43 10 73 51 73" id="k"/><g id="a"><use transform="matrix(0.04320987654320988,0,0,0.04320987654320988,0,0)" xlink:href="#f"/><use transform="matrix(0.04320987654320988,0,0,0.04320987654320988,7.734567901234567,0)" xlink:href="#g"/><use transform="matrix(0.04320987654320988,0,0,0.04320987654320988,16.376543209876544,0)" xlink:href="#h"/><use transform="matrix(0.04320987654320988,0,0,0.04320987654320988,24.154320987654323,0)" xlink:href="#i"/><use transform="matrix(0.04320987654320988,0,0,0.04320987654320988,28.47530864197531,0)" xlink:href="#j"/><use transform="matrix(0.04320987654320988,0,0,0.04320987654320988,38.845679012345684,0)" xlink:href="#k"/><use transform="matrix(0.04320987654320988,0,0,0.04320987654320988,47.48765432098766,0)" xlink:href="#k"/></g><path fill="#323e45" d="M185-189c-5-48-123-54-124 2 14 75 158 14 163 119 3 78-121 87-175 55-17-10-28-26-33-46l33-7c5 56 141 63 141-1 0-78-155-14-162-118-5-82 145-84 179-34 5 7 8 16 11 25" id="l"/><path fill="#323e45" d="M96-169c-40 0-48 33-48 73s9 75 48 75c24 0 41-14 43-38l32 2c-6 37-31 61-74 61-59 0-76-41-82-99-10-93 101-131 147-64 4 7 5 14 7 22l-32 3c-4-21-16-35-41-35" id="m"/><path fill="#323e45" d="M141-36C126-15 110 5 73 4 37 3 15-17 15-53c-1-64 63-63 125-63 3-35-9-54-41-54-24 1-41 7-42 31l-33-3c5-37 33-52 76-52 45 0 72 20 72 64v82c-1 20 7 32 28 27v20c-31 9-61-2-59-35zM48-53c0 20 12 33 32 33 41-3 63-29 60-74-43 2-92-5-92 41" id="n"/><path fill="#323e45" d="M101-234c-31-9-42 10-38 44h38v23H63V0H32v-167H5v-23h27c-7-52 17-82 69-68v24" id="o"/><path fill="#323e45" d="M100-194c62-1 85 37 85 99 1 63-27 99-86 99S16-35 15-95c0-66 28-99 85-99zM99-20c44 1 53-31 53-75 0-43-8-75-51-75s-53 32-53 75 10 74 51 75" id="p"/><path fill="#323e45" d="M24 0v-261h32V0H24" id="q"/><path fill="#323e45" d="M85-194c31 0 48 13 60 33l-1-100h32l1 261h-30c-2-10 0-23-3-31C134-8 116 4 85 4 32 4 16-35 15-94c0-66 23-100 70-100zm9 24c-40 0-46 34-46 75 0 40 6 74 45 74 42 0 51-32 51-76 0-42-9-74-50-73" id="r"/><g id="b"><use transform="matrix(0.04320987654320988,0,0,0.04320987654320988,0,0)" xlink:href="#l"/><use transform="matrix(0.04320987654320988,0,0,0.04320987654320988,10.370370370370372,0)" xlink:href="#m"/><use transform="matrix(0.04320987654320988,0,0,0.04320987654320988,18.148148148148152,0)" xlink:href="#n"/><use transform="matrix(0.04320987654320988,0,0,0.04320987654320988,26.790123456790127,0)" xlink:href="#o"/><use transform="matrix(0.04320987654320988,0,0,0.04320987654320988,30.808641975308646,0)" xlink:href="#o"/><use transform="matrix(0.04320987654320988,0,0,0.04320987654320988,35.12962962962963,0)" xlink:href="#p"/><use transform="matrix(0.04320987654320988,0,0,0.04320987654320988,43.77160493827161,0)" xlink:href="#q"/><use transform="matrix(0.04320987654320988,0,0,0.04320987654320988,47.18518518518519,0)" xlink:href="#r"/></g><path fill="#323e45" d="M212-179c-10-28-35-45-73-45-59 0-87 40-87 99 0 60 29 101 89 101 43 0 62-24 78-52l27 14C228-24 195 4 139 4 59 4 22-46 18-125c-6-104 99-153 187-111 19 9 31 26 39 46" id="s"/><path fill="#323e45" d="M117-194c89-4 53 116 60 194h-32v-121c0-31-8-49-39-48C34-167 62-67 57 0H25l-1-190h30c1 10-1 24 2 32 11-22 29-35 61-36" id="t"/><path fill="#323e45" d="M114-163C36-179 61-72 57 0H25l-1-190h30c1 12-1 29 2 39 6-27 23-49 58-41v29" id="u"/><g id="c"><use transform="matrix(0.04320987654320988,0,0,0.04320987654320988,0,0)" xlink:href="#s"/><use transform="matrix(0.04320987654320988,0,0,0.04320987654320988,11.19135802469136,0)" xlink:href="#g"/><use transform="matrix(0.04320987654320988,0,0,0.04320987654320988,19.833333333333336,0)" xlink:href="#t"/><use transform="matrix(0.04320987654320988,0,0,0.04320987654320988,28.47530864197531,0)" xlink:href="#i"/><use transform="matrix(0.04320987654320988,0,0,0.04320987654320988,32.7962962962963,0)" xlink:href="#g"/><use transform="matrix(0.04320987654320988,0,0,0.04320987654320988,41.43827160493827,0)" xlink:href="#u"/></g><path fill="#323e45" d="M160-131c35 5 61 23 61 61C221 17 115-2 30 0v-248c76 3 177-17 177 60 0 33-19 50-47 57zm-97-11c50-1 110 9 110-42 0-47-63-36-110-37v79zm0 115c55-2 124 14 124-45 0-56-70-42-124-44v89" id="v"/><g id="d"><use transform="matrix(0.04320987654320988,0,0,0.04320987654320988,0,0)" xlink:href="#j"/><use transform="matrix(0.04320987654320988,0,0,0.04320987654320988,10.370370370370372,0)" xlink:href="#k"/><use transform="matrix(0.04320987654320988,0,0,0.04320987654320988,19.01234567901235,0)" xlink:href="#k"/><use transform="matrix(0.04320987654320988,0,0,0.04320987654320988,27.654320987654323,0)" xlink:href="#v"/><use transform="matrix(0.04320987654320988,0,0,0.04320987654320988,38.0246913580247,0)" xlink:href="#n"/><use transform="matrix(0.04320987654320988,0,0,0.04320987654320988,46.66666666666667,0)" xlink:href="#u"/></g><path fill="#323e45" d="M141 0L90-78 38 0H4l68-98-65-92h35l48 74 47-74h35l-64 92 68 98h-35" id="w"/><g id="e"><use transform="matrix(0.04320987654320988,0,0,0.04320987654320988,0,0)" xlink:href="#f"/><use transform="matrix(0.04320987654320988,0,0,0.04320987654320988,7.734567901234567,0)" xlink:href="#g"/><use transform="matrix(0.04320987654320988,0,0,0.04320987654320988,16.376543209876544,0)" xlink:href="#w"/><use transform="matrix(0.04320987654320988,0,0,0.04320987654320988,24.154320987654323,0)" xlink:href="#i"/></g></defs></g></svg>